<svg xmlns="http://www.w3.org/2000/svg" width="1004" height="304" viewBox="-2 -2 1004 304" role="img" aria-label="A checkpoint: after a slice the scenarios run; a pass goes on, a failure is fixed and run again, and three failures stop for you"><title>A checkpoint: after a slice the scenarios run; a pass goes on, a failure is fixed and run again, and three failures stop for you</title><rect x="0" y="20" width="180" height="56" rx="12" fill="#0d1117" stroke="#3d444d" stroke-width="1"/><text x="90" y="54" font-family="-apple-system, BlinkMacSystemFont, 'Segoe UI', 'Helvetica Neue', Helvetica, Arial, sans-serif" font-size="14" font-weight="650" fill="#e6edf3" text-anchor="middle">Slice 2 built</text><rect x="220" y="20" width="180" height="56" rx="12" fill="#132235" stroke="#5da3e5" stroke-width="1.6"/><text x="310" y="54" font-family="-apple-system, BlinkMacSystemFont, 'Segoe UI', 'Helvetica Neue', Helvetica, Arial, sans-serif" font-size="14" font-weight="650" fill="#e6edf3" text-anchor="middle">Running</text><rect x="440" y="20" width="180" height="56" rx="12" fill="#0d1117" stroke="#3fb950" stroke-width="1.6"/><text x="530" y="54" font-family="-apple-system, BlinkMacSystemFont, 'Segoe UI', 'Helvetica Neue', Helvetica, Arial, sans-serif" font-size="14" font-weight="650" fill="#e6edf3" text-anchor="middle">Passed</text><rect x="660" y="20" width="180" height="56" rx="12" fill="#0d1117" stroke="#3d444d" stroke-width="1"/><text x="750" y="54" font-family="-apple-system, BlinkMacSystemFont, 'Segoe UI', 'Helvetica Neue', Helvetica, Arial, sans-serif" font-size="14" font-weight="650" fill="#e6edf3" text-anchor="middle">Next slice</text><path d="M182 48 L218 48" stroke="#9198a1" stroke-width="1.8"/><path d="M211 43 l7 5 l-7 5" fill="none" stroke="#9198a1" stroke-width="1.8"/><path d="M402 48 L438 48" stroke="#9198a1" stroke-width="1.8"/><path d="M431 43 l7 5 l-7 5" fill="none" stroke="#9198a1" stroke-width="1.8"/><path d="M622 48 L658 48" stroke="#9198a1" stroke-width="1.8"/><path d="M651 43 l7 5 l-7 5" fill="none" stroke="#9198a1" stroke-width="1.8"/><path d="M468 48 l4 4 l8 -9" fill="none" stroke="#3fb950" stroke-width="2.4" stroke-linecap="round" stroke-linejoin="round"/><text x="870" y="54" font-family="-apple-system, BlinkMacSystemFont, 'Segoe UI', 'Helvetica Neue', Helvetica, Arial, sans-serif" font-size="12" font-weight="400" fill="#9198a1" text-anchor="start">Tests, logs and a</text><text x="870" y="70" font-family="-apple-system, BlinkMacSystemFont, 'Segoe UI', 'Helvetica Neue', Helvetica, Arial, sans-serif" font-size="12" font-weight="400" fill="#9198a1" text-anchor="start">screenshot are kept</text><rect x="220" y="172" width="180" height="56" rx="12" fill="#0d1117" stroke="#f85149" stroke-width="1.6"/><path d="M245 195 l10 10 M255 195 l-10 10" stroke="#f85149" stroke-width="2.4" stroke-linecap="round"/><text x="318" y="205" font-family="-apple-system, BlinkMacSystemFont, 'Segoe UI', 'Helvetica Neue', Helvetica, Arial, sans-serif" font-size="14" font-weight="650" fill="#e6edf3" text-anchor="middle">Failed</text><path d="M310 78 L310 170" stroke="#f85149" stroke-width="1.8"/><path d="M305 163 l5 7 l5 -7" fill="none" stroke="#f85149" stroke-width="1.8"/><path d="M218 200 H150 V78" fill="none" stroke="#9198a1" stroke-width="1.8" stroke-dasharray="4 4"/><path d="M145 85 l5 -7 l5 7" fill="none" stroke="#9198a1" stroke-width="1.8"/><text x="84" y="150" font-family="-apple-system, BlinkMacSystemFont, 'Segoe UI', 'Helvetica Neue', Helvetica, Arial, sans-serif" font-size="12" font-weight="400" fill="#9198a1" text-anchor="middle">Fixed at the</text><text x="84" y="166" font-family="-apple-system, BlinkMacSystemFont, 'Segoe UI', 'Helvetica Neue', Helvetica, Arial, sans-serif" font-size="12" font-weight="400" fill="#9198a1" text-anchor="middle">source, run again</text><path d="M402 200 L470 200" stroke="#9198a1" stroke-width="1.8"/><path d="M463 195 l7 5 l-7 5" fill="none" stroke="#9198a1" stroke-width="1.8"/><text x="436" y="190" font-family="-apple-system, BlinkMacSystemFont, 'Segoe UI', 'Helvetica Neue', Helvetica, Arial, sans-serif" font-size="11.5" font-weight="600" fill="#f85149" text-anchor="middle">3 runs</text><rect x="472" y="152" width="508" height="96" rx="12" fill="#2a2112" stroke="#e8b04f" stroke-width="1.6"/><text x="490" y="180" font-family="-apple-system, BlinkMacSystemFont, 'Segoe UI', 'Helvetica Neue', Helvetica, Arial, sans-serif" font-size="14" font-weight="650" fill="#e6edf3" text-anchor="start">Stopped: the build waits for you</text><rect x="490" y="204" width="96" height="22" rx="11" fill="#0d1117" stroke="#3d444d"/><text x="538.0" y="219" font-family="-apple-system, BlinkMacSystemFont, 'Segoe UI', 'Helvetica Neue', Helvetica, Arial, sans-serif" font-size="11.5" font-weight="600" fill="#e6edf3" text-anchor="middle">Continue</text><rect x="596" y="204" width="72" height="22" rx="11" fill="#0d1117" stroke="#3d444d"/><text x="632.0" y="219" font-family="-apple-system, BlinkMacSystemFont, 'Segoe UI', 'Helvetica Neue', Helvetica, Arial, sans-serif" font-size="11.5" font-weight="600" fill="#e6edf3" text-anchor="middle">Pivot</text><rect x="678" y="204" width="92" height="22" rx="11" fill="#0d1117" stroke="#3d444d"/><text x="724.0" y="219" font-family="-apple-system, BlinkMacSystemFont, 'Segoe UI', 'Helvetica Neue', Helvetica, Arial, sans-serif" font-size="11.5" font-weight="600" fill="#e6edf3" text-anchor="middle">Abandon</text></svg>
