<svg xmlns="http://www.w3.org/2000/svg" width="1004" height="334" viewBox="-2 -2 1004 334" role="img" aria-label="The Verify tab: rounds on the left, then the recorded checks, Done means and scenarios, each with PASS and its evidence"><title>The Verify tab: rounds on the left, then the recorded checks, Done means and scenarios, each with PASS and its evidence</title><rect x="0" y="0" width="200" height="326" rx="12" fill="#151b23" stroke="#3d444d" stroke-width="1"/><text x="18" y="30" font-family="-apple-system, BlinkMacSystemFont, 'Segoe UI', 'Helvetica Neue', Helvetica, Arial, sans-serif" font-size="13" font-weight="650" fill="#9198a1" text-anchor="start">Rounds</text><rect x="14" y="46" width="172" height="54" rx="12" fill="#0d1117" stroke="#3d444d" stroke-width="1"/><path d="M29 63 l10 10 M39 63 l-10 10" stroke="#f85149" stroke-width="2.4" stroke-linecap="round"/><text x="50" y="72" font-family="-apple-system, BlinkMacSystemFont, 'Segoe UI', 'Helvetica Neue', Helvetica, Arial, sans-serif" font-size="13.5" font-weight="650" fill="#e6edf3" text-anchor="start">Round 1</text><text x="50" y="90" font-family="-apple-system, BlinkMacSystemFont, 'Segoe UI', 'Helvetica Neue', Helvetica, Arial, sans-serif" font-size="12" font-weight="400" fill="#9198a1" text-anchor="start">2 gaps, fixed</text><rect x="14" y="110" width="172" height="54" rx="12" fill="#0d1117" stroke="#3fb950" stroke-width="1.5"/><path d="M28 132 l4 4 l8 -9" fill="none" stroke="#3fb950" stroke-width="2.4" stroke-linecap="round" stroke-linejoin="round"/><text x="50" y="136" font-family="-apple-system, BlinkMacSystemFont, 'Segoe UI', 'Helvetica Neue', Helvetica, Arial, sans-serif" font-size="13.5" font-weight="650" fill="#e6edf3" text-anchor="start">Round 2</text><text x="50" y="154" font-family="-apple-system, BlinkMacSystemFont, 'Segoe UI', 'Helvetica Neue', Helvetica, Arial, sans-serif" font-size="12" font-weight="400" fill="#9198a1" text-anchor="start">All passed</text><rect x="224" y="0" width="246" height="326" rx="12" fill="#151b23" stroke="#3d444d" stroke-width="1"/><text x="240" y="30" font-family="-apple-system, BlinkMacSystemFont, 'Segoe UI', 'Helvetica Neue', Helvetica, Arial, sans-serif" font-size="14" font-weight="650" fill="#e6edf3" text-anchor="start">Recorded checks</text><rect x="236" y="48" width="222" height="36" rx="8" fill="#0d1117" stroke="#3d444d"/><text x="248" y="71" font-family="-apple-system, BlinkMacSystemFont, 'Segoe UI', 'Helvetica Neue', Helvetica, Arial, sans-serif" font-size="12.5" font-weight="500" fill="#e6edf3" text-anchor="start">Tests</text><text x="446" y="71" font-family="ui-monospace, SFMono-Regular, Menlo, Consolas, monospace" font-size="11" font-weight="700" fill="#3fb950" text-anchor="end">PASS</text><rect x="236" y="92" width="222" height="36" rx="8" fill="#0d1117" stroke="#3d444d"/><text x="248" y="115" font-family="-apple-system, BlinkMacSystemFont, 'Segoe UI', 'Helvetica Neue', Helvetica, Arial, sans-serif" font-size="12.5" font-weight="500" fill="#e6edf3" text-anchor="start">Lint and types</text><text x="446" y="115" font-family="ui-monospace, SFMono-Regular, Menlo, Consolas, monospace" font-size="11" font-weight="700" fill="#3fb950" text-anchor="end">PASS</text><rect x="236" y="136" width="222" height="36" rx="8" fill="#0d1117" stroke="#3d444d"/><text x="248" y="159" font-family="-apple-system, BlinkMacSystemFont, 'Segoe UI', 'Helvetica Neue', Helvetica, Arial, sans-serif" font-size="12.5" font-weight="500" fill="#e6edf3" text-anchor="start">Build</text><text x="446" y="159" font-family="ui-monospace, SFMono-Regular, Menlo, Consolas, monospace" font-size="11" font-weight="700" fill="#3fb950" text-anchor="end">PASS</text><text x="240" y="214" font-family="-apple-system, BlinkMacSystemFont, 'Segoe UI', 'Helvetica Neue', Helvetica, Arial, sans-serif" font-size="12" font-weight="700" fill="#6e7681" text-anchor="start">Evidence</text><rect x="240" y="226" width="62" height="44" rx="6" fill="#0d1117" stroke="#3d444d"/><rect x="248" y="236" width="44" height="4" rx="3" fill="#3d444d"/><rect x="248" y="245" width="30" height="4" rx="3" fill="#3d444d"/><rect x="248" y="254" width="38" height="4" rx="3" fill="#3d444d"/><rect x="312" y="226" width="62" height="44" rx="6" fill="#0d1117" stroke="#3d444d"/><rect x="320" y="236" width="44" height="4" rx="3" fill="#3d444d"/><rect x="320" y="245" width="30" height="4" rx="3" fill="#3d444d"/><rect x="320" y="254" width="38" height="4" rx="3" fill="#3d444d"/><rect x="384" y="226" width="62" height="44" rx="6" fill="#0d1117" stroke="#3d444d"/><rect x="392" y="236" width="44" height="4" rx="3" fill="#3d444d"/><rect x="392" y="245" width="30" height="4" rx="3" fill="#3d444d"/><rect x="392" y="254" width="38" height="4" rx="3" fill="#3d444d"/><rect x="486" y="0" width="246" height="326" rx="12" fill="#151b23" stroke="#3d444d" stroke-width="1"/><text x="502" y="30" font-family="-apple-system, BlinkMacSystemFont, 'Segoe UI', 'Helvetica Neue', Helvetica, Arial, sans-serif" font-size="14" font-weight="650" fill="#e6edf3" text-anchor="start">Done means</text><rect x="498" y="48" width="222" height="36" rx="8" fill="#0d1117" stroke="#3d444d"/><text x="510" y="71" font-family="-apple-system, BlinkMacSystemFont, 'Segoe UI', 'Helvetica Neue', Helvetica, Arial, sans-serif" font-size="12.5" font-weight="500" fill="#e6edf3" text-anchor="start">1  Export button</text><text x="708" y="71" font-family="ui-monospace, SFMono-Regular, Menlo, Consolas, monospace" font-size="11" font-weight="700" fill="#3fb950" text-anchor="end">PASS</text><rect x="498" y="92" width="222" height="36" rx="8" fill="#0d1117" stroke="#3d444d"/><text x="510" y="115" font-family="-apple-system, BlinkMacSystemFont, 'Segoe UI', 'Helvetica Neue', Helvetica, Arial, sans-serif" font-size="12.5" font-weight="500" fill="#e6edf3" text-anchor="start">2  Opens in a spreadsheet</text><text x="708" y="115" font-family="ui-monospace, SFMono-Regular, Menlo, Consolas, monospace" font-size="11" font-weight="700" fill="#3fb950" text-anchor="end">PASS</text><rect x="498" y="136" width="222" height="36" rx="8" fill="#0d1117" stroke="#3d444d"/><text x="510" y="159" font-family="-apple-system, BlinkMacSystemFont, 'Segoe UI', 'Helvetica Neue', Helvetica, Arial, sans-serif" font-size="12.5" font-weight="500" fill="#e6edf3" text-anchor="start">3  Email for large ones</text><text x="708" y="159" font-family="ui-monospace, SFMono-Regular, Menlo, Consolas, monospace" font-size="11" font-weight="700" fill="#3fb950" text-anchor="end">PASS</text><text x="502" y="214" font-family="-apple-system, BlinkMacSystemFont, 'Segoe UI', 'Helvetica Neue', Helvetica, Arial, sans-serif" font-size="12" font-weight="700" fill="#6e7681" text-anchor="start">Evidence</text><rect x="502" y="226" width="62" height="44" rx="6" fill="#0d1117" stroke="#3d444d"/><rect x="510" y="236" width="44" height="4" rx="3" fill="#3d444d"/><rect x="510" y="245" width="30" height="4" rx="3" fill="#3d444d"/><rect x="510" y="254" width="38" height="4" rx="3" fill="#3d444d"/><rect x="574" y="226" width="62" height="44" rx="6" fill="#0d1117" stroke="#3d444d"/><rect x="582" y="236" width="44" height="4" rx="3" fill="#3d444d"/><rect x="582" y="245" width="30" height="4" rx="3" fill="#3d444d"/><rect x="582" y="254" width="38" height="4" rx="3" fill="#3d444d"/><rect x="646" y="226" width="62" height="44" rx="6" fill="#0d1117" stroke="#3d444d"/><rect x="654" y="236" width="44" height="4" rx="3" fill="#3d444d"/><rect x="654" y="245" width="30" height="4" rx="3" fill="#3d444d"/><rect x="654" y="254" width="38" height="4" rx="3" fill="#3d444d"/><rect x="748" y="0" width="246" height="326" rx="12" fill="#151b23" stroke="#3d444d" stroke-width="1"/><text x="764" y="30" font-family="-apple-system, BlinkMacSystemFont, 'Segoe UI', 'Helvetica Neue', Helvetica, Arial, sans-serif" font-size="14" font-weight="650" fill="#e6edf3" text-anchor="start">Scenarios</text><rect x="760" y="48" width="222" height="36" rx="8" fill="#0d1117" stroke="#3d444d"/><text x="772" y="71" font-family="-apple-system, BlinkMacSystemFont, 'Segoe UI', 'Helvetica Neue', Helvetica, Arial, sans-serif" font-size="12.5" font-weight="500" fill="#e6edf3" text-anchor="start">Export a filtered report</text><text x="970" y="71" font-family="ui-monospace, SFMono-Regular, Menlo, Consolas, monospace" font-size="11" font-weight="700" fill="#3fb950" text-anchor="end">PASS</text><rect x="760" y="92" width="222" height="36" rx="8" fill="#0d1117" stroke="#3d444d"/><text x="772" y="115" font-family="-apple-system, BlinkMacSystemFont, 'Segoe UI', 'Helvetica Neue', Helvetica, Arial, sans-serif" font-size="12.5" font-weight="500" fill="#e6edf3" text-anchor="start">Export 200,000 rows</text><text x="970" y="115" font-family="ui-monospace, SFMono-Regular, Menlo, Consolas, monospace" font-size="11" font-weight="700" fill="#3fb950" text-anchor="end">PASS</text><text x="764" y="214" font-family="-apple-system, BlinkMacSystemFont, 'Segoe UI', 'Helvetica Neue', Helvetica, Arial, sans-serif" font-size="12" font-weight="700" fill="#6e7681" text-anchor="start">Evidence</text><rect x="764" y="226" width="62" height="44" rx="6" fill="#0d1117" stroke="#3d444d"/><rect x="772" y="236" width="44" height="4" rx="3" fill="#3d444d"/><rect x="772" y="245" width="30" height="4" rx="3" fill="#3d444d"/><rect x="772" y="254" width="38" height="4" rx="3" fill="#3d444d"/><rect x="836" y="226" width="62" height="44" rx="6" fill="#0d1117" stroke="#3d444d"/><rect x="844" y="236" width="44" height="4" rx="3" fill="#3d444d"/><rect x="844" y="245" width="30" height="4" rx="3" fill="#3d444d"/><rect x="844" y="254" width="38" height="4" rx="3" fill="#3d444d"/><rect x="908" y="226" width="62" height="44" rx="6" fill="#0d1117" stroke="#3d444d"/><rect x="916" y="236" width="44" height="4" rx="3" fill="#3d444d"/><rect x="916" y="245" width="30" height="4" rx="3" fill="#3d444d"/><rect x="916" y="254" width="38" height="4" rx="3" fill="#3d444d"/></svg>
